REM MD5 a589b24e9b7444b83812fc223876eb3f
FILE "Hyper PlayStation Re-mix No. 8 (Japan).bin" BINARY
  TRACK 01 MODE2/2352
    INDEX 01 00:00:00
  TRACK 02 AUDIO
    INDEX 00 31:05:36
    INDEX 01 31:08:36
  TRACK 03 AUDIO
    INDEX 00 34:16:41
    INDEX 01 34:19:41
  TRACK 04 AUDIO
    INDEX 00 35:19:49
    INDEX 01 35:23:49
  TRACK 05 AUDIO
    INDEX 00 36:11:21
    INDEX 01 36:16:21
  TRACK 06 AUDIO
    INDEX 00 37:53:22
    INDEX 01 37:59:22
REM LEADOUT 42:24:66
